*
*
G04 PADS VX.1.1 Build Number: 678707 generated Gerber (RS-274-X) file*
G04 PC Version=2.1*
*
%IN "VM2000.pcb"*%
*
%MOIN*%
*
%FSLAX35Y35*%
*
*
*
*
G04 PC Standard Apertures*
*
*
G04 Thermal Relief Aperture macro.*
%AMTER*
1,1,$1,0,0*
1,0,$1-$2,0,0*
21,0,$3,$4,0,0,45*
21,0,$3,$4,0,0,135*
%
*
*
G04 Annular Aperture macro.*
%AMANN*
1,1,$1,0,0*
1,0,$2,0,0*
%
*
*
G04 Odd Aperture macro.*
%AMODD*
1,1,$1,0,0*
1,0,$1-0.005,0,0*
%
*
*
G04 PC Custom Aperture Macros*
*
*
*
*
*
*
G04 PC Aperture Table*
*
%ADD010C,0.008*%
%ADD011C,0.01*%
%ADD090C,0.001*%
*
*
*
*
G04 PC Circuitry*
G04 Layer Name VM2000.pcb - circuitry*
%LPD*%
*
*
G04 PC Custom Flashes*
G04 Layer Name VM2000.pcb - flashes*
%LPD*%
*
*
G04 PC Circuitry*
G04 Layer Name VM2000.pcb - circuitry*
%LPD*%
*
G54D10*
G01X2219250Y1741700D02*
X2226750D01*
Y1749200*
X2219250*
Y1741700*
X2223000Y1745450D02*
Y1749200D01*
X2207450Y1741700D02*
X2214950D01*
Y1749200*
X2207450*
Y1741700*
X2211200Y1745450D02*
Y1749200D01*
X2236250Y1741700D02*
X2243750Y1749200D01*
X2236250D02*
X2243750Y1741700D01*
X1997250Y1635700D02*
X2004750D01*
Y1643200*
X1997250*
Y1635700*
X2001000Y1639450D02*
Y1643200D01*
X1997250Y1647500D02*
X2004750D01*
Y1655000*
X1997250*
Y1647500*
X2001000Y1651250D02*
Y1655000D01*
X1997250Y1618700D02*
X2004750Y1626200D01*
X1997250D02*
X2004750Y1618700D01*
X2031250Y1931700D02*
X2038750D01*
Y1939200*
X2031250*
Y1931700*
X2035000Y1935450D02*
Y1939200D01*
X2031250Y1919900D02*
X2038750D01*
Y1927400*
X2031250*
Y1919900*
X2035000Y1923650D02*
Y1927400D01*
X2031250Y1948700D02*
X2038750Y1956200D01*
X2031250D02*
X2038750Y1948700D01*
X2091250Y1931700D02*
X2098750D01*
Y1939200*
X2091250*
Y1931700*
X2095000Y1935450D02*
Y1939200D01*
X2091250Y1919900D02*
X2098750D01*
Y1927400*
X2091250*
Y1919900*
X2095000Y1923650D02*
Y1927400D01*
X2091250Y1948700D02*
X2098750Y1956200D01*
X2091250D02*
X2098750Y1948700D01*
X1971250Y1931700D02*
X1978750D01*
Y1939200*
X1971250*
Y1931700*
X1975000Y1935450D02*
Y1939200D01*
X1971250Y1919900D02*
X1978750D01*
Y1927400*
X1971250*
Y1919900*
X1975000Y1923650D02*
Y1927400D01*
X1971250Y1948700D02*
X1978750Y1956200D01*
X1971250D02*
X1978750Y1948700D01*
X2087250Y1635700D02*
X2094750D01*
Y1643200*
X2087250*
Y1635700*
X2091000Y1639450D02*
Y1643200D01*
X2087250Y1647500D02*
X2094750D01*
Y1655000*
X2087250*
Y1647500*
X2091000Y1651250D02*
Y1655000D01*
X2087250Y1618700D02*
X2094750Y1626200D01*
X2087250D02*
X2094750Y1618700D01*
X1907250Y1635700D02*
X1914750D01*
Y1643200*
X1907250*
Y1635700*
X1911000Y1639450D02*
Y1643200D01*
X1907250Y1647500D02*
X1914750D01*
Y1655000*
X1907250*
Y1647500*
X1911000Y1651250D02*
Y1655000D01*
X1907250Y1618700D02*
X1914750Y1626200D01*
X1907250D02*
X1914750Y1618700D01*
X1967250Y1635700D02*
X1974750D01*
Y1643200*
X1967250*
Y1635700*
X1971000Y1639450D02*
Y1643200D01*
X1967250Y1647500D02*
X1974750D01*
Y1655000*
X1967250*
Y1647500*
X1971000Y1651250D02*
Y1655000D01*
X1967250Y1618700D02*
X1974750Y1626200D01*
X1967250D02*
X1974750Y1618700D01*
X2161450Y1785700D02*
X2168950D01*
X2161450Y1793200*
X2168950*
X2161450Y1785700*
X2181150D02*
X2188650D01*
X2181150Y1793200*
X2188650*
X2181150Y1785700*
X2027250Y1635700D02*
X2034750D01*
Y1643200*
X2027250*
Y1635700*
X2031000Y1639450D02*
Y1643200D01*
X2027250Y1647500D02*
X2034750D01*
Y1655000*
X2027250*
Y1647500*
X2031000Y1651250D02*
Y1655000D01*
X2027250Y1618700D02*
X2034750Y1626200D01*
X2027250D02*
X2034750Y1618700D01*
X2219250Y1823300D02*
X2226750D01*
Y1830800*
X2219250*
Y1823300*
X2223000Y1827050D02*
Y1830800D01*
X2207450Y1823300D02*
X2214950D01*
Y1830800*
X2207450*
Y1823300*
X2211200Y1827050D02*
Y1830800D01*
X2219250Y1811500D02*
X2226750D01*
Y1819000*
X2219250*
Y1811500*
X2223000Y1815250D02*
Y1819000D01*
X2207450Y1811500D02*
X2214950D01*
Y1819000*
X2207450*
Y1811500*
X2211200Y1815250D02*
Y1819000D01*
X2219250Y1799700D02*
X2226750D01*
Y1807200*
X2219250*
Y1799700*
X2223000Y1803450D02*
Y1807200D01*
X2207450Y1799700D02*
X2214950D01*
Y1807200*
X2207450*
Y1799700*
X2211200Y1803450D02*
Y1807200D01*
X2219250Y1787900D02*
X2226750D01*
Y1795400*
X2219250*
Y1787900*
X2223000Y1791650D02*
Y1795400D01*
X2207450Y1787900D02*
X2214950D01*
Y1795400*
X2207450*
Y1787900*
X2211200Y1791650D02*
Y1795400D01*
X2219250Y1776100D02*
X2226750D01*
Y1783600*
X2219250*
Y1776100*
X2223000Y1779850D02*
Y1783600D01*
X2207450Y1776100D02*
X2214950D01*
Y1783600*
X2207450*
Y1776100*
X2211200Y1779850D02*
Y1783600D01*
X2236250Y1814900D02*
X2243750Y1822400D01*
X2236250D02*
X2243750Y1814900D01*
X2236250Y1784500D02*
X2243750Y1792000D01*
X2236250D02*
X2243750Y1784500D01*
X1787250Y1635700D02*
X1794750D01*
Y1643200*
X1787250*
Y1635700*
X1791000Y1639450D02*
Y1643200D01*
X1787250Y1647500D02*
X1794750D01*
Y1655000*
X1787250*
Y1647500*
X1791000Y1651250D02*
Y1655000D01*
X1787250Y1618700D02*
X1794750Y1626200D01*
X1787250D02*
X1794750Y1618700D01*
X1817250Y1635700D02*
X1824750D01*
Y1643200*
X1817250*
Y1635700*
X1821000Y1639450D02*
Y1643200D01*
X1817250Y1647500D02*
X1824750D01*
Y1655000*
X1817250*
Y1647500*
X1821000Y1651250D02*
Y1655000D01*
X1817250Y1618700D02*
X1824750Y1626200D01*
X1817250D02*
X1824750Y1618700D01*
X1847250Y1635700D02*
X1854750D01*
Y1643200*
X1847250*
Y1635700*
X1851000Y1639450D02*
Y1643200D01*
X1847250Y1647500D02*
X1854750D01*
Y1655000*
X1847250*
Y1647500*
X1851000Y1651250D02*
Y1655000D01*
X1847250Y1618700D02*
X1854750Y1626200D01*
X1847250D02*
X1854750Y1618700D01*
X1877250Y1635700D02*
X1884750D01*
Y1643200*
X1877250*
Y1635700*
X1881000Y1639450D02*
Y1643200D01*
X1877250Y1647500D02*
X1884750D01*
Y1655000*
X1877250*
Y1647500*
X1881000Y1651250D02*
Y1655000D01*
X1877250Y1618700D02*
X1884750Y1626200D01*
X1877250D02*
X1884750Y1618700D01*
X1937250Y1635700D02*
X1944750D01*
Y1643200*
X1937250*
Y1635700*
X1941000Y1639450D02*
Y1643200D01*
X1937250Y1647500D02*
X1944750D01*
Y1655000*
X1937250*
Y1647500*
X1941000Y1651250D02*
Y1655000D01*
X1937250Y1618700D02*
X1944750Y1626200D01*
X1937250D02*
X1944750Y1618700D01*
X2057250Y1635700D02*
X2064750D01*
Y1643200*
X2057250*
Y1635700*
X2061000Y1639450D02*
Y1643200D01*
X2057250Y1647500D02*
X2064750D01*
Y1655000*
X2057250*
Y1647500*
X2061000Y1651250D02*
Y1655000D01*
X2057250Y1618700D02*
X2064750Y1626200D01*
X2057250D02*
X2064750Y1618700D01*
X2117250Y1635700D02*
X2124750D01*
Y1643200*
X2117250*
Y1635700*
X2121000Y1639450D02*
Y1643200D01*
X2117250Y1647500D02*
X2124750D01*
Y1655000*
X2117250*
Y1647500*
X2121000Y1651250D02*
Y1655000D01*
X2117250Y1618700D02*
X2124750Y1626200D01*
X2117250D02*
X2124750Y1618700D01*
X2121250Y1931700D02*
X2128750D01*
Y1939200*
X2121250*
Y1931700*
X2125000Y1935450D02*
Y1939200D01*
X2121250Y1919900D02*
X2128750D01*
Y1927400*
X2121250*
Y1919900*
X2125000Y1923650D02*
Y1927400D01*
X2121250Y1948700D02*
X2128750Y1956200D01*
X2121250D02*
X2128750Y1948700D01*
X2061250Y1931700D02*
X2068750D01*
Y1939200*
X2061250*
Y1931700*
X2065000Y1935450D02*
Y1939200D01*
X2061250Y1919900D02*
X2068750D01*
Y1927400*
X2061250*
Y1919900*
X2065000Y1923650D02*
Y1927400D01*
X2061250Y1948700D02*
X2068750Y1956200D01*
X2061250D02*
X2068750Y1948700D01*
X2001250Y1931700D02*
X2008750D01*
Y1939200*
X2001250*
Y1931700*
X2005000Y1935450D02*
Y1939200D01*
X2001250Y1919900D02*
X2008750D01*
Y1927400*
X2001250*
Y1919900*
X2005000Y1923650D02*
Y1927400D01*
X2001250Y1948700D02*
X2008750Y1956200D01*
X2001250D02*
X2008750Y1948700D01*
X1941250Y1931700D02*
X1948750D01*
Y1939200*
X1941250*
Y1931700*
X1945000Y1935450D02*
Y1939200D01*
X1941250Y1919900D02*
X1948750D01*
Y1927400*
X1941250*
Y1919900*
X1945000Y1923650D02*
Y1927400D01*
X1941250Y1948700D02*
X1948750Y1956200D01*
X1941250D02*
X1948750Y1948700D01*
X1911250Y1931700D02*
X1918750D01*
Y1939200*
X1911250*
Y1931700*
X1915000Y1935450D02*
Y1939200D01*
X1911250Y1919900D02*
X1918750D01*
Y1927400*
X1911250*
Y1919900*
X1915000Y1923650D02*
Y1927400D01*
X1911250Y1948700D02*
X1918750Y1956200D01*
X1911250D02*
X1918750Y1948700D01*
X1881250Y1931700D02*
X1888750D01*
Y1939200*
X1881250*
Y1931700*
X1885000Y1935450D02*
Y1939200D01*
X1881250Y1919900D02*
X1888750D01*
Y1927400*
X1881250*
Y1919900*
X1885000Y1923650D02*
Y1927400D01*
X1881250Y1948700D02*
X1888750Y1956200D01*
X1881250D02*
X1888750Y1948700D01*
X1851250Y1931700D02*
X1858750D01*
Y1939200*
X1851250*
Y1931700*
X1855000Y1935450D02*
Y1939200D01*
X1851250Y1919900D02*
X1858750D01*
Y1927400*
X1851250*
Y1919900*
X1855000Y1923650D02*
Y1927400D01*
X1851250Y1948700D02*
X1858750Y1956200D01*
X1851250D02*
X1858750Y1948700D01*
X1821250Y1931700D02*
X1828750D01*
Y1939200*
X1821250*
Y1931700*
X1825000Y1935450D02*
Y1939200D01*
X1821250Y1919900D02*
X1828750D01*
Y1927400*
X1821250*
Y1919900*
X1825000Y1923650D02*
Y1927400D01*
X1821250Y1948700D02*
X1828750Y1956200D01*
X1821250D02*
X1828750Y1948700D01*
X1791250Y1931700D02*
X1798750D01*
Y1939200*
X1791250*
Y1931700*
X1795000Y1935450D02*
Y1939200D01*
X1791250Y1919900D02*
X1798750D01*
Y1927400*
X1791250*
Y1919900*
X1795000Y1923650D02*
Y1927400D01*
X1791250Y1948700D02*
X1798750Y1956200D01*
X1791250D02*
X1798750Y1948700D01*
X1752250Y1952700D02*
X1759750Y1960200D01*
Y1952700*
X1752250Y1960200*
Y1952700*
Y1612700D02*
X1759750Y1620200D01*
Y1612700*
X1752250Y1620200*
Y1612700*
X2242250D02*
X2249750Y1620200D01*
Y1612700*
X2242250Y1620200*
Y1612700*
Y1952700D02*
X2249750Y1960200D01*
Y1952700*
X2242250Y1960200*
Y1952700*
X2172250Y1692450D02*
X2179750D01*
X2176000Y1688700D02*
Y1696200D01*
X2180773Y1703153D02*
X2178500Y1694950D01*
X2180773Y1703153D02*
X2183045Y1694950D01*
X2179352Y1697684D02*
X2182193D01*
X2174750Y1696950D02*
X2182250D01*
X2178500Y1693200D02*
Y1700700D01*
X2183273Y1707653D02*
X2181000Y1699450D01*
X2183273Y1707653D02*
X2185545Y1699450D01*
X2181852Y1702184D02*
X2184693D01*
X2194750Y1692950D02*
X2202250D01*
X2198500Y1689200D02*
Y1696700D01*
X2203273Y1703653D02*
X2201000Y1695450D01*
X2203273Y1703653D02*
X2205545Y1695450D01*
X2201852Y1698184D02*
X2204693D01*
X2213250Y1698950D02*
X2220750D01*
X2217000Y1695200D02*
Y1702700D01*
X2221773Y1709653D02*
X2219500Y1701450D01*
X2221773Y1709653D02*
X2224045Y1701450D01*
X2220352Y1704184D02*
X2223193D01*
X2223250Y1693950D02*
X2230750D01*
X2227000Y1690200D02*
Y1697700D01*
X2231773Y1704653D02*
X2229500Y1696450D01*
X2231773Y1704653D02*
X2234045Y1696450D01*
X2230352Y1699184D02*
X2233193D01*
X2226250Y1691450D02*
X2233750D01*
X2230000Y1687700D02*
Y1695200D01*
X2234773Y1702153D02*
X2232500Y1693950D01*
X2234773Y1702153D02*
X2237045Y1693950D01*
X2233352Y1696684D02*
X2236193D01*
X2128250Y1710450D02*
X2135750D01*
X2132000Y1706700D02*
Y1714200D01*
X2136773Y1721153D02*
X2134500Y1712950D01*
X2136773Y1721153D02*
X2139045Y1712950D01*
X2135352Y1715684D02*
X2138193D01*
X2133750Y1700950D02*
X2141250D01*
X2137500Y1697200D02*
Y1704700D01*
X2142273Y1711653D02*
X2140000Y1703450D01*
X2142273Y1711653D02*
X2144545Y1703450D01*
X2140852Y1706184D02*
X2143693D01*
X2158750Y1707950D02*
X2166250D01*
X2162500Y1704200D02*
Y1711700D01*
X2167273Y1718653D02*
X2165000Y1710450D01*
X2167273Y1718653D02*
X2169545Y1710450D01*
X2165852Y1713184D02*
X2168693D01*
X1817750Y1715750D02*
X1825250D01*
X1821500Y1712000D02*
Y1719500D01*
X1826273Y1726453D02*
X1824000Y1718250D01*
X1826273Y1726453D02*
X1828545Y1718250D01*
X1824852Y1720984D02*
X1827693D01*
X1850750Y1715750D02*
X1858250D01*
X1854500Y1712000D02*
Y1719500D01*
X1859273Y1726453D02*
X1857000Y1718250D01*
X1859273Y1726453D02*
X1861545Y1718250D01*
X1857852Y1720984D02*
X1860693D01*
X1875750Y1715750D02*
X1883250D01*
X1879500Y1712000D02*
Y1719500D01*
X1884273Y1726453D02*
X1882000Y1718250D01*
X1884273Y1726453D02*
X1886545Y1718250D01*
X1882852Y1720984D02*
X1885693D01*
X1908750Y1715750D02*
X1916250D01*
X1912500Y1712000D02*
Y1719500D01*
X1917273Y1726453D02*
X1915000Y1718250D01*
X1917273Y1726453D02*
X1919545Y1718250D01*
X1915852Y1720984D02*
X1918693D01*
X1933650Y1715850D02*
X1941150D01*
X1937400Y1712100D02*
Y1719600D01*
X1942173Y1726553D02*
X1939900Y1718350D01*
X1942173Y1726553D02*
X1944445Y1718350D01*
X1940752Y1721084D02*
X1943593D01*
X1967250Y1715750D02*
X1974750D01*
X1971000Y1712000D02*
Y1719500D01*
X1975773Y1726453D02*
X1973500Y1718250D01*
X1975773Y1726453D02*
X1978045Y1718250D01*
X1974352Y1720984D02*
X1977193D01*
X1991950Y1715750D02*
X1999450D01*
X1995700Y1712000D02*
Y1719500D01*
X2000473Y1726453D02*
X1998200Y1718250D01*
X2000473Y1726453D02*
X2002745Y1718250D01*
X1999052Y1720984D02*
X2001893D01*
X2026850Y1715750D02*
X2034350D01*
X2030600Y1712000D02*
Y1719500D01*
X2035373Y1726453D02*
X2033100Y1718250D01*
X2035373Y1726453D02*
X2037645Y1718250D01*
X2033952Y1720984D02*
X2036793D01*
X2051650Y1715750D02*
X2059150D01*
X2055400Y1712000D02*
Y1719500D01*
X2060173Y1726453D02*
X2057900Y1718250D01*
X2060173Y1726453D02*
X2062445Y1718250D01*
X2058752Y1720984D02*
X2061593D01*
X2087150Y1715750D02*
X2094650D01*
X2090900Y1712000D02*
Y1719500D01*
X2095673Y1726453D02*
X2093400Y1718250D01*
X2095673Y1726453D02*
X2097945Y1718250D01*
X2094252Y1720984D02*
X2097093D01*
X2111750Y1715750D02*
X2119250D01*
X2115500Y1712000D02*
Y1719500D01*
X2120273Y1726453D02*
X2118000Y1718250D01*
X2120273Y1726453D02*
X2122545Y1718250D01*
X2118852Y1720984D02*
X2121693D01*
X2137750Y1714950D02*
X2145250D01*
X2141500Y1711200D02*
Y1718700D01*
X2146273Y1725653D02*
X2144000Y1717450D01*
X2146273Y1725653D02*
X2148545Y1717450D01*
X2144852Y1720184D02*
X2147693D01*
X2221750Y1718450D02*
X2229250D01*
X2225500Y1714700D02*
Y1722200D01*
X2230273Y1729153D02*
X2228000Y1720950D01*
X2230273Y1729153D02*
X2232545Y1720950D01*
X2228852Y1723684D02*
X2231693D01*
X2094750Y1727450D02*
X2102250D01*
X2098500Y1723700D02*
Y1731200D01*
X2103273Y1738153D02*
X2101000Y1729950D01*
X2103273Y1738153D02*
X2105545Y1729950D01*
X2101852Y1732684D02*
X2104693D01*
X2133750Y1720950D02*
X2141250D01*
X2137500Y1717200D02*
Y1724700D01*
X2142273Y1731653D02*
X2140000Y1723450D01*
X2142273Y1731653D02*
X2144545Y1723450D01*
X2140852Y1726184D02*
X2143693D01*
X1794750Y1737950D02*
X1802250D01*
X1798500Y1734200D02*
Y1741700D01*
X1803273Y1748653D02*
X1801000Y1740450D01*
X1803273Y1748653D02*
X1805545Y1740450D01*
X1801852Y1743184D02*
X1804693D01*
X1852750Y1737950D02*
X1860250D01*
X1856500Y1734200D02*
Y1741700D01*
X1861273Y1748653D02*
X1859000Y1740450D01*
X1861273Y1748653D02*
X1863545Y1740450D01*
X1859852Y1743184D02*
X1862693D01*
X1910750Y1737950D02*
X1918250D01*
X1914500Y1734200D02*
Y1741700D01*
X1919273Y1748653D02*
X1917000Y1740450D01*
X1919273Y1748653D02*
X1921545Y1740450D01*
X1917852Y1743184D02*
X1920693D01*
X1968750Y1737950D02*
X1976250D01*
X1972500Y1734200D02*
Y1741700D01*
X1977273Y1748653D02*
X1975000Y1740450D01*
X1977273Y1748653D02*
X1979545Y1740450D01*
X1975852Y1743184D02*
X1978693D01*
X2034750Y1737450D02*
X2042250D01*
X2038500Y1733700D02*
Y1741200D01*
X2043273Y1748153D02*
X2041000Y1739950D01*
X2043273Y1748153D02*
X2045545Y1739950D01*
X2041852Y1742684D02*
X2044693D01*
X2099250Y1738950D02*
X2106750D01*
X2103000Y1735200D02*
Y1742700D01*
X2107773Y1749653D02*
X2105500Y1741450D01*
X2107773Y1749653D02*
X2110045Y1741450D01*
X2106352Y1744184D02*
X2109193D01*
X1802750Y1744950D02*
X1810250D01*
X1806500Y1741200D02*
Y1748700D01*
X1811273Y1755653D02*
X1809000Y1747450D01*
X1811273Y1755653D02*
X1813545Y1747450D01*
X1809852Y1750184D02*
X1812693D01*
X1860750Y1744450D02*
X1868250D01*
X1864500Y1740700D02*
Y1748200D01*
X1869273Y1755153D02*
X1867000Y1746950D01*
X1869273Y1755153D02*
X1871545Y1746950D01*
X1867852Y1749684D02*
X1870693D01*
X1917750Y1744950D02*
X1925250D01*
X1921500Y1741200D02*
Y1748700D01*
X1926273Y1755653D02*
X1924000Y1747450D01*
X1926273Y1755653D02*
X1928545Y1747450D01*
X1924852Y1750184D02*
X1927693D01*
X1980750Y1744950D02*
X1988250D01*
X1984500Y1741200D02*
Y1748700D01*
X1989273Y1755653D02*
X1987000Y1747450D01*
X1989273Y1755653D02*
X1991545Y1747450D01*
X1987852Y1750184D02*
X1990693D01*
X2043250Y1744950D02*
X2050750D01*
X2047000Y1741200D02*
Y1748700D01*
X2051773Y1755653D02*
X2049500Y1747450D01*
X2051773Y1755653D02*
X2054045Y1747450D01*
X2050352Y1750184D02*
X2053193D01*
X2102250Y1745450D02*
X2109750D01*
X2106000Y1741700D02*
Y1749200D01*
X2110773Y1756153D02*
X2108500Y1747950D01*
X2110773Y1756153D02*
X2113045Y1747950D01*
X2109352Y1750684D02*
X2112193D01*
X2208750Y1770950D02*
X2216250D01*
X2212500Y1767200D02*
Y1774700D01*
X2217273Y1781653D02*
X2215000Y1773450D01*
X2217273Y1781653D02*
X2219545Y1773450D01*
X2215852Y1776184D02*
X2218693D01*
X2122750Y1794450D02*
X2130250D01*
X2126500Y1790700D02*
Y1798200D01*
X2131273Y1805153D02*
X2129000Y1796950D01*
X2131273Y1805153D02*
X2133545Y1796950D01*
X2129852Y1799684D02*
X2132693D01*
X2228250Y1797950D02*
X2235750D01*
X2232000Y1794200D02*
Y1801700D01*
X2236773Y1808653D02*
X2234500Y1800450D01*
X2236773Y1808653D02*
X2239045Y1800450D01*
X2235352Y1803184D02*
X2238193D01*
X2151250Y1807450D02*
X2158750D01*
X2155000Y1803700D02*
Y1811200D01*
X2159773Y1818153D02*
X2157500Y1809950D01*
X2159773Y1818153D02*
X2162045Y1809950D01*
X2158352Y1812684D02*
X2161193D01*
X2163750Y1809950D02*
X2171250D01*
X2167500Y1806200D02*
Y1813700D01*
X2172273Y1820653D02*
X2170000Y1812450D01*
X2172273Y1820653D02*
X2174545Y1812450D01*
X2170852Y1815184D02*
X2173693D01*
X2195250Y1801950D02*
X2202750D01*
X2199000Y1798200D02*
Y1805700D01*
X2203773Y1812653D02*
X2201500Y1804450D01*
X2203773Y1812653D02*
X2206045Y1804450D01*
X2202352Y1807184D02*
X2205193D01*
X2022750Y1818450D02*
X2030250D01*
X2026500Y1814700D02*
Y1822200D01*
X2031273Y1829153D02*
X2029000Y1820950D01*
X2031273Y1829153D02*
X2033545Y1820950D01*
X2029852Y1823684D02*
X2032693D01*
X2198750Y1814950D02*
X2206250D01*
X2202500Y1811200D02*
Y1818700D01*
X2207273Y1825653D02*
X2205000Y1817450D01*
X2207273Y1825653D02*
X2209545Y1817450D01*
X2205852Y1820184D02*
X2208693D01*
X1870750Y1829450D02*
X1878250D01*
X1874500Y1825700D02*
Y1833200D01*
X1879273Y1840153D02*
X1877000Y1831950D01*
X1879273Y1840153D02*
X1881545Y1831950D01*
X1877852Y1834684D02*
X1880693D01*
X1933250Y1829450D02*
X1940750D01*
X1937000Y1825700D02*
Y1833200D01*
X1941773Y1840153D02*
X1939500Y1831950D01*
X1941773Y1840153D02*
X1944045Y1831950D01*
X1940352Y1834684D02*
X1943193D01*
X1989750Y1829950D02*
X1997250D01*
X1993500Y1826200D02*
Y1833700D01*
X1998273Y1840653D02*
X1996000Y1832450D01*
X1998273Y1840653D02*
X2000545Y1832450D01*
X1996852Y1835184D02*
X1999693D01*
X2053750Y1829450D02*
X2061250D01*
X2057500Y1825700D02*
Y1833200D01*
X2062273Y1840153D02*
X2060000Y1831950D01*
X2062273Y1840153D02*
X2064545Y1831950D01*
X2060852Y1834684D02*
X2063693D01*
X2114750Y1829450D02*
X2122250D01*
X2118500Y1825700D02*
Y1833200D01*
X2123273Y1840153D02*
X2121000Y1831950D01*
X2123273Y1840153D02*
X2125545Y1831950D01*
X2121852Y1834684D02*
X2124693D01*
X2145250Y1827450D02*
X2152750D01*
X2149000Y1823700D02*
Y1831200D01*
X2153773Y1838153D02*
X2151500Y1829950D01*
X2153773Y1838153D02*
X2156045Y1829950D01*
X2152352Y1832684D02*
X2155193D01*
X2166750Y1820950D02*
X2174250D01*
X2170500Y1817200D02*
Y1824700D01*
X2175273Y1831653D02*
X2173000Y1823450D01*
X2175273Y1831653D02*
X2177545Y1823450D01*
X2173852Y1826184D02*
X2176693D01*
X1808250Y1831950D02*
X1815750D01*
X1812000Y1828200D02*
Y1835700D01*
X1816773Y1842653D02*
X1814500Y1834450D01*
X1816773Y1842653D02*
X1819045Y1834450D01*
X1815352Y1837184D02*
X1818193D01*
X1813250Y1836450D02*
X1820750D01*
X1817000Y1832700D02*
Y1840200D01*
X1821773Y1847153D02*
X1819500Y1838950D01*
X1821773Y1847153D02*
X1824045Y1838950D01*
X1820352Y1841684D02*
X1823193D01*
X1875250Y1835950D02*
X1882750D01*
X1879000Y1832200D02*
Y1839700D01*
X1883773Y1846653D02*
X1881500Y1838450D01*
X1883773Y1846653D02*
X1886045Y1838450D01*
X1882352Y1841184D02*
X1885193D01*
X1937250Y1835950D02*
X1944750D01*
X1941000Y1832200D02*
Y1839700D01*
X1945773Y1846653D02*
X1943500Y1838450D01*
X1945773Y1846653D02*
X1948045Y1838450D01*
X1944352Y1841184D02*
X1947193D01*
X2000750Y1836450D02*
X2008250D01*
X2004500Y1832700D02*
Y1840200D01*
X2009273Y1847153D02*
X2007000Y1838950D01*
X2009273Y1847153D02*
X2011545Y1838950D01*
X2007852Y1841684D02*
X2010693D01*
X2064250Y1836950D02*
X2071750D01*
X2068000Y1833200D02*
Y1840700D01*
X2072773Y1847653D02*
X2070500Y1839450D01*
X2072773Y1847653D02*
X2075045Y1839450D01*
X2071352Y1842184D02*
X2074193D01*
X2125250Y1836450D02*
X2132750D01*
X2129000Y1832700D02*
Y1840200D01*
X2133773Y1847153D02*
X2131500Y1838950D01*
X2133773Y1847153D02*
X2136045Y1838950D01*
X2132352Y1841684D02*
X2135193D01*
X2141750Y1831950D02*
X2149250D01*
X2145500Y1828200D02*
Y1835700D01*
X2150273Y1842653D02*
X2148000Y1834450D01*
X2150273Y1842653D02*
X2152545Y1834450D01*
X2148852Y1837184D02*
X2151693D01*
X2224750Y1841950D02*
X2232250D01*
X2228500Y1838200D02*
Y1845700D01*
X2233273Y1852653D02*
X2231000Y1844450D01*
X2233273Y1852653D02*
X2235545Y1844450D01*
X2231852Y1847184D02*
X2234693D01*
X1972750Y1860450D02*
X1980250D01*
X1976500Y1856700D02*
Y1864200D01*
X1981273Y1871153D02*
X1979000Y1862950D01*
X1981273Y1871153D02*
X1983545Y1862950D01*
X1979852Y1865684D02*
X1982693D01*
X2082750Y1860450D02*
X2090250D01*
X2086500Y1856700D02*
Y1864200D01*
X2091273Y1871153D02*
X2089000Y1862950D01*
X2091273Y1871153D02*
X2093545Y1862950D01*
X2089852Y1865684D02*
X2092693D01*
X2127750Y1860450D02*
X2135250D01*
X2131500Y1856700D02*
Y1864200D01*
X2136273Y1871153D02*
X2134000Y1862950D01*
X2136273Y1871153D02*
X2138545Y1862950D01*
X2134852Y1865684D02*
X2137693D01*
X1817750Y1860950D02*
X1825250D01*
X1821500Y1857200D02*
Y1864700D01*
X1826273Y1871653D02*
X1824000Y1863450D01*
X1826273Y1871653D02*
X1828545Y1863450D01*
X1824852Y1866184D02*
X1827693D01*
X1852750Y1861150D02*
X1860250D01*
X1856500Y1857400D02*
Y1864900D01*
X1861273Y1871853D02*
X1859000Y1863650D01*
X1861273Y1871853D02*
X1863545Y1863650D01*
X1859852Y1866384D02*
X1862693D01*
X1877850Y1861550D02*
X1885350D01*
X1881600Y1857800D02*
Y1865300D01*
X1886373Y1872253D02*
X1884100Y1864050D01*
X1886373Y1872253D02*
X1888645Y1864050D01*
X1884952Y1866784D02*
X1887793D01*
X1913150Y1861150D02*
X1920650D01*
X1916900Y1857400D02*
Y1864900D01*
X1921673Y1871853D02*
X1919400Y1863650D01*
X1921673Y1871853D02*
X1923945Y1863650D01*
X1920252Y1866384D02*
X1923093D01*
X1937750Y1861150D02*
X1945250D01*
X1941500Y1857400D02*
Y1864900D01*
X1946273Y1871853D02*
X1944000Y1863650D01*
X1946273Y1871853D02*
X1948545Y1863650D01*
X1944852Y1866384D02*
X1947693D01*
X1997750Y1861150D02*
X2005250D01*
X2001500Y1857400D02*
Y1864900D01*
X2006273Y1871853D02*
X2004000Y1863650D01*
X2006273Y1871853D02*
X2008545Y1863650D01*
X2004852Y1866384D02*
X2007693D01*
X2032450Y1861150D02*
X2039950D01*
X2036200Y1857400D02*
Y1864900D01*
X2040973Y1871853D02*
X2038700Y1863650D01*
X2040973Y1871853D02*
X2043245Y1863650D01*
X2039552Y1866384D02*
X2042393D01*
X2057750Y1861150D02*
X2065250D01*
X2061500Y1857400D02*
Y1864900D01*
X2066273Y1871853D02*
X2064000Y1863650D01*
X2066273Y1871853D02*
X2068545Y1863650D01*
X2064852Y1866384D02*
X2067693D01*
X2093050Y1861150D02*
X2100550D01*
X2096800Y1857400D02*
Y1864900D01*
X2101573Y1871853D02*
X2099300Y1863650D01*
X2101573Y1871853D02*
X2103845Y1863650D01*
X2100152Y1866384D02*
X2102993D01*
X2117750Y1861150D02*
X2125250D01*
X2121500Y1857400D02*
Y1864900D01*
X2126273Y1871853D02*
X2124000Y1863650D01*
X2126273Y1871853D02*
X2128545Y1863650D01*
X2124852Y1866384D02*
X2127693D01*
X2153250Y1861950D02*
X2160750D01*
X2157000Y1858200D02*
Y1865700D01*
X2161773Y1872653D02*
X2159500Y1864450D01*
X2161773Y1872653D02*
X2164045Y1864450D01*
X2160352Y1867184D02*
X2163193D01*
X2200250Y1866450D02*
X2207750D01*
X2204000Y1862700D02*
Y1870200D01*
X2208773Y1877153D02*
X2206500Y1868950D01*
X2208773Y1877153D02*
X2211045Y1868950D01*
X2207352Y1871684D02*
X2210193D01*
X2225750Y1867450D02*
X2233250D01*
X2229500Y1863700D02*
Y1871200D01*
X2234273Y1878153D02*
X2232000Y1869950D01*
X2234273Y1878153D02*
X2236545Y1869950D01*
X2232852Y1872684D02*
X2235693D01*
X1801750Y1662450D02*
X1809250D01*
X1805500Y1658700D02*
Y1666200D01*
X1810273Y1673153D02*
X1808000Y1664950D01*
X1810273Y1673153D02*
X1812545Y1664950D01*
X1808852Y1667684D02*
X1811693D01*
X1861250Y1661950D02*
X1868750D01*
X1865000Y1658200D02*
Y1665700D01*
X1869773Y1672653D02*
X1867500Y1664450D01*
X1869773Y1672653D02*
X1872045Y1664450D01*
X1868352Y1667184D02*
X1871193D01*
X1918750Y1661950D02*
X1926250D01*
X1922500Y1658200D02*
Y1665700D01*
X1927273Y1672653D02*
X1925000Y1664450D01*
X1927273Y1672653D02*
X1929545Y1664450D01*
X1925852Y1667184D02*
X1928693D01*
X1976750Y1662450D02*
X1984250D01*
X1980500Y1658700D02*
Y1666200D01*
X1985273Y1673153D02*
X1983000Y1664950D01*
X1985273Y1673153D02*
X1987545Y1664950D01*
X1983852Y1667684D02*
X1986693D01*
X2037250Y1662450D02*
X2044750D01*
X2041000Y1658700D02*
Y1666200D01*
X2045773Y1673153D02*
X2043500Y1664950D01*
X2045773Y1673153D02*
X2048045Y1664950D01*
X2044352Y1667684D02*
X2047193D01*
X2097750Y1662450D02*
X2105250D01*
X2101500Y1658700D02*
Y1666200D01*
X2106273Y1673153D02*
X2104000Y1664950D01*
X2106273Y1673153D02*
X2108545Y1664950D01*
X2104852Y1667684D02*
X2107693D01*
X2181250Y1660950D02*
X2188750D01*
X2185000Y1657200D02*
Y1664700D01*
X2189773Y1671653D02*
X2187500Y1663450D01*
X2189773Y1671653D02*
X2192045Y1663450D01*
X2188352Y1666184D02*
X2191193D01*
X2164250Y1635450D02*
X2171750D01*
X2168000Y1631700D02*
Y1639200D01*
X2172773Y1646153D02*
X2170500Y1637950D01*
X2172773Y1646153D02*
X2175045Y1637950D01*
X2171352Y1640684D02*
X2174193D01*
X2173250Y1650950D02*
X2180750D01*
X2177000Y1647200D02*
Y1654700D01*
X2181773Y1661653D02*
X2179500Y1653450D01*
X2181773Y1661653D02*
X2184045Y1653450D01*
X2180352Y1656184D02*
X2183193D01*
X2144250Y1617950D02*
X2151750D01*
X2148000Y1614200D02*
Y1621700D01*
X2152773Y1628653D02*
X2150500Y1620450D01*
X2152773Y1628653D02*
X2155045Y1620450D01*
X2151352Y1623184D02*
X2154193D01*
X2229250Y1655450D02*
X2236750D01*
X2233000Y1651700D02*
Y1659200D01*
X2237773Y1666153D02*
X2235500Y1657950D01*
X2237773Y1666153D02*
X2240045Y1657950D01*
X2236352Y1660684D02*
X2239193D01*
X2238250Y1654950D02*
X2245750D01*
X2242000Y1651200D02*
Y1658700D01*
X2246773Y1665653D02*
X2244500Y1657450D01*
X2246773Y1665653D02*
X2249045Y1657450D01*
X2245352Y1660184D02*
X2248193D01*
X1753750Y1669450D02*
X1761250D01*
X1757500Y1665700D02*
Y1673200D01*
X1762273Y1680153D02*
X1760000Y1671950D01*
X1762273Y1680153D02*
X1764545Y1671950D01*
X1760852Y1674684D02*
X1763693D01*
X1753250Y1695950D02*
X1760750D01*
X1757000Y1692200D02*
Y1699700D01*
X1761773Y1706653D02*
X1759500Y1698450D01*
X1761773Y1706653D02*
X1764045Y1698450D01*
X1760352Y1701184D02*
X1763193D01*
X1753250Y1722450D02*
X1760750D01*
X1757000Y1718700D02*
Y1726200D01*
X1761773Y1733153D02*
X1759500Y1724950D01*
X1761773Y1733153D02*
X1764045Y1724950D01*
X1760352Y1727684D02*
X1763193D01*
X1792750Y1715750D02*
X1800250D01*
X1796500Y1712000D02*
Y1719500D01*
X1801273Y1726453D02*
X1799000Y1718250D01*
X1801273Y1726453D02*
X1803545Y1718250D01*
X1799852Y1720984D02*
X1802693D01*
X1854750Y1667450D02*
X1862250D01*
X1858500Y1663700D02*
Y1671200D01*
X1863273Y1678153D02*
X1861000Y1669950D01*
X1863273Y1678153D02*
X1865545Y1669950D01*
X1861852Y1672684D02*
X1864693D01*
X1811250Y1667450D02*
X1818750D01*
X1815000Y1663700D02*
Y1671200D01*
X1819773Y1678153D02*
X1817500Y1669950D01*
X1819773Y1678153D02*
X1822045Y1669950D01*
X1818352Y1672684D02*
X1821193D01*
X1796250Y1666950D02*
X1803750D01*
X1800000Y1663200D02*
Y1670700D01*
X1804773Y1677653D02*
X1802500Y1669450D01*
X1804773Y1677653D02*
X1807045Y1669450D01*
X1803352Y1672184D02*
X1806193D01*
X1927750Y1666950D02*
X1935250D01*
X1931500Y1663200D02*
Y1670700D01*
X1936273Y1677653D02*
X1934000Y1669450D01*
X1936273Y1677653D02*
X1938545Y1669450D01*
X1934852Y1672184D02*
X1937693D01*
X1912750Y1666950D02*
X1920250D01*
X1916500Y1663200D02*
Y1670700D01*
X1921273Y1677653D02*
X1919000Y1669450D01*
X1921273Y1677653D02*
X1923545Y1669450D01*
X1919852Y1672184D02*
X1922693D01*
X1870250Y1667450D02*
X1877750D01*
X1874000Y1663700D02*
Y1671200D01*
X1878773Y1678153D02*
X1876500Y1669950D01*
X1878773Y1678153D02*
X1881045Y1669950D01*
X1877352Y1672684D02*
X1880193D01*
X1971250Y1665950D02*
X1978750D01*
X1975000Y1662200D02*
Y1669700D01*
X1979773Y1676653D02*
X1977500Y1668450D01*
X1979773Y1676653D02*
X1982045Y1668450D01*
X1978352Y1671184D02*
X1981193D01*
X1985750Y1666950D02*
X1993250D01*
X1989500Y1663200D02*
Y1670700D01*
X1994273Y1677653D02*
X1992000Y1669450D01*
X1994273Y1677653D02*
X1996545Y1669450D01*
X1992852Y1672184D02*
X1995693D01*
X2046250Y1666950D02*
X2053750D01*
X2050000Y1663200D02*
Y1670700D01*
X2054773Y1677653D02*
X2052500Y1669450D01*
X2054773Y1677653D02*
X2057045Y1669450D01*
X2053352Y1672184D02*
X2056193D01*
X2030750Y1666450D02*
X2038250D01*
X2034500Y1662700D02*
Y1670200D01*
X2039273Y1677153D02*
X2037000Y1668950D01*
X2039273Y1677153D02*
X2041545Y1668950D01*
X2037852Y1671684D02*
X2040693D01*
X2090750Y1666950D02*
X2098250D01*
X2094500Y1663200D02*
Y1670700D01*
X2099273Y1677653D02*
X2097000Y1669450D01*
X2099273Y1677653D02*
X2101545Y1669450D01*
X2097852Y1672184D02*
X2100693D01*
X2106250Y1666950D02*
X2113750D01*
X2110000Y1663200D02*
Y1670700D01*
X2114773Y1677653D02*
X2112500Y1669450D01*
X2114773Y1677653D02*
X2117045Y1669450D01*
X2113352Y1672184D02*
X2116193D01*
X1753250Y1748950D02*
X1760750D01*
X1757000Y1745200D02*
Y1752700D01*
X1761773Y1759653D02*
X1759500Y1751450D01*
X1761773Y1759653D02*
X1764045Y1751450D01*
X1760352Y1754184D02*
X1763193D01*
X1753250Y1775450D02*
X1760750D01*
X1757000Y1771700D02*
Y1779200D01*
X1761773Y1786153D02*
X1759500Y1777950D01*
X1761773Y1786153D02*
X1764045Y1777950D01*
X1760352Y1780684D02*
X1763193D01*
X1753250Y1801950D02*
X1760750D01*
X1757000Y1798200D02*
Y1805700D01*
X1761773Y1812653D02*
X1759500Y1804450D01*
X1761773Y1812653D02*
X1764045Y1804450D01*
X1760352Y1807184D02*
X1763193D01*
X1753250Y1828450D02*
X1760750D01*
X1757000Y1824700D02*
Y1832200D01*
X1761773Y1839153D02*
X1759500Y1830950D01*
X1761773Y1839153D02*
X1764045Y1830950D01*
X1760352Y1833684D02*
X1763193D01*
X1753250Y1854950D02*
X1760750D01*
X1757000Y1851200D02*
Y1858700D01*
X1761773Y1865653D02*
X1759500Y1857450D01*
X1761773Y1865653D02*
X1764045Y1857450D01*
X1760352Y1860184D02*
X1763193D01*
X1753250Y1881450D02*
X1760750D01*
X1757000Y1877700D02*
Y1885200D01*
X1761773Y1892153D02*
X1759500Y1883950D01*
X1761773Y1892153D02*
X1764045Y1883950D01*
X1760352Y1886684D02*
X1763193D01*
X1791250Y1860950D02*
X1798750D01*
X1795000Y1857200D02*
Y1864700D01*
X1799773Y1871653D02*
X1797500Y1863450D01*
X1799773Y1871653D02*
X1802045Y1863450D01*
X1798352Y1866184D02*
X1801193D01*
X2142750Y1898950D02*
X2150250D01*
X2146500Y1895200D02*
Y1902700D01*
X2151273Y1909653D02*
X2149000Y1901450D01*
X2151273Y1909653D02*
X2153545Y1901450D01*
X2149852Y1904184D02*
X2152693D01*
X2133250Y1903450D02*
X2140750D01*
X2137000Y1899700D02*
Y1907200D01*
X2141773Y1914153D02*
X2139500Y1905950D01*
X2141773Y1914153D02*
X2144045Y1905950D01*
X2140352Y1908684D02*
X2143193D01*
X1753250Y1909450D02*
X1760750D01*
X1757000Y1905700D02*
Y1913200D01*
X1761773Y1920153D02*
X1759500Y1911950D01*
X1761773Y1920153D02*
X1764045Y1911950D01*
X1760352Y1914684D02*
X1763193D01*
X1811750Y1909950D02*
X1819250D01*
X1815500Y1906200D02*
Y1913700D01*
X1820273Y1920653D02*
X1818000Y1912450D01*
X1820273Y1920653D02*
X1822545Y1912450D01*
X1818852Y1915184D02*
X1821693D01*
X1799250Y1909950D02*
X1806750D01*
X1803000Y1906200D02*
Y1913700D01*
X1807773Y1920653D02*
X1805500Y1912450D01*
X1807773Y1920653D02*
X1810045Y1912450D01*
X1806352Y1915184D02*
X1809193D01*
X1858750Y1909950D02*
X1866250D01*
X1862500Y1906200D02*
Y1913700D01*
X1867273Y1920653D02*
X1865000Y1912450D01*
X1867273Y1920653D02*
X1869545Y1912450D01*
X1865852Y1915184D02*
X1868693D01*
X1820250Y1912450D02*
X1827750D01*
X1824000Y1908700D02*
Y1916200D01*
X1828773Y1923153D02*
X1826500Y1914950D01*
X1828773Y1923153D02*
X1831045Y1914950D01*
X1827352Y1917684D02*
X1830193D01*
X1871750Y1909950D02*
X1879250D01*
X1875500Y1906200D02*
Y1913700D01*
X1880273Y1920653D02*
X1878000Y1912450D01*
X1880273Y1920653D02*
X1882545Y1912450D01*
X1878852Y1915184D02*
X1881693D01*
X1931750Y1909950D02*
X1939250D01*
X1935500Y1906200D02*
Y1913700D01*
X1940273Y1920653D02*
X1938000Y1912450D01*
X1940273Y1920653D02*
X1942545Y1912450D01*
X1938852Y1915184D02*
X1941693D01*
X1919250Y1909950D02*
X1926750D01*
X1923000Y1906200D02*
Y1913700D01*
X1927773Y1920653D02*
X1925500Y1912450D01*
X1927773Y1920653D02*
X1930045Y1912450D01*
X1926352Y1915184D02*
X1929193D01*
X1879250Y1913450D02*
X1886750D01*
X1883000Y1909700D02*
Y1917200D01*
X1887773Y1924153D02*
X1885500Y1915950D01*
X1887773Y1924153D02*
X1890045Y1915950D01*
X1886352Y1918684D02*
X1889193D01*
X1939750Y1913450D02*
X1947250D01*
X1943500Y1909700D02*
Y1917200D01*
X1948273Y1924153D02*
X1946000Y1915950D01*
X1948273Y1924153D02*
X1950545Y1915950D01*
X1946852Y1918684D02*
X1949693D01*
X1991750Y1909950D02*
X1999250D01*
X1995500Y1906200D02*
Y1913700D01*
X2000273Y1920653D02*
X1998000Y1912450D01*
X2000273Y1920653D02*
X2002545Y1912450D01*
X1998852Y1915184D02*
X2001693D01*
X1978750Y1909950D02*
X1986250D01*
X1982500Y1906200D02*
Y1913700D01*
X1987273Y1920653D02*
X1985000Y1912450D01*
X1987273Y1920653D02*
X1989545Y1912450D01*
X1985852Y1915184D02*
X1988693D01*
X1998750Y1913450D02*
X2006250D01*
X2002500Y1909700D02*
Y1917200D01*
X2007273Y1924153D02*
X2005000Y1915950D01*
X2007273Y1924153D02*
X2009545Y1915950D01*
X2005852Y1918684D02*
X2008693D01*
X2039250Y1909950D02*
X2046750D01*
X2043000Y1906200D02*
Y1913700D01*
X2047773Y1920653D02*
X2045500Y1912450D01*
X2047773Y1920653D02*
X2050045Y1912450D01*
X2046352Y1915184D02*
X2049193D01*
X2059750Y1913450D02*
X2067250D01*
X2063500Y1909700D02*
Y1917200D01*
X2068273Y1924153D02*
X2066000Y1915950D01*
X2068273Y1924153D02*
X2070545Y1915950D01*
X2066852Y1918684D02*
X2069693D01*
X2098750Y1909950D02*
X2106250D01*
X2102500Y1906200D02*
Y1913700D01*
X2107273Y1920653D02*
X2105000Y1912450D01*
X2107273Y1920653D02*
X2109545Y1912450D01*
X2105852Y1915184D02*
X2108693D01*
X2051750Y1909950D02*
X2059250D01*
X2055500Y1906200D02*
Y1913700D01*
X2060273Y1920653D02*
X2058000Y1912450D01*
X2060273Y1920653D02*
X2062545Y1912450D01*
X2058852Y1915184D02*
X2061693D01*
X2172250Y1936450D02*
X2179750D01*
X2176000Y1932700D02*
Y1940200D01*
X2180773Y1947153D02*
X2178500Y1938950D01*
X2180773Y1947153D02*
X2183045Y1938950D01*
X2179352Y1941684D02*
X2182193D01*
X2157250Y1932950D02*
X2164750D01*
X2161000Y1929200D02*
Y1936700D01*
X2165773Y1943653D02*
X2163500Y1935450D01*
X2165773Y1943653D02*
X2168045Y1935450D01*
X2164352Y1938184D02*
X2167193D01*
X2119750Y1913450D02*
X2127250D01*
X2123500Y1909700D02*
Y1917200D01*
X2128273Y1924153D02*
X2126000Y1915950D01*
X2128273Y1924153D02*
X2130545Y1915950D01*
X2126852Y1918684D02*
X2129693D01*
X2111750Y1909950D02*
X2119250D01*
X2115500Y1906200D02*
Y1913700D01*
X2120273Y1920653D02*
X2118000Y1912450D01*
X2120273Y1920653D02*
X2122545Y1912450D01*
X2118852Y1915184D02*
X2121693D01*
X2224250Y1939950D02*
X2231750D01*
X2228000Y1936200D02*
Y1943700D01*
X2232773Y1950653D02*
X2230500Y1942450D01*
X2232773Y1950653D02*
X2235045Y1942450D01*
X2231352Y1945184D02*
X2234193D01*
X2220250Y1942950D02*
X2227750D01*
X2224000Y1939200D02*
Y1946700D01*
X2228773Y1953653D02*
X2226500Y1945450D01*
X2228773Y1953653D02*
X2231045Y1945450D01*
X2227352Y1948184D02*
X2230193D01*
X2209750Y1935450D02*
X2217250D01*
X2213500Y1931700D02*
Y1939200D01*
X2218273Y1946153D02*
X2216000Y1937950D01*
X2218273Y1946153D02*
X2220545Y1937950D01*
X2216852Y1940684D02*
X2219693D01*
X2212250Y1923450D02*
X2219750D01*
X2216000Y1919700D02*
Y1927200D01*
X2220773Y1934153D02*
X2218500Y1925950D01*
X2220773Y1934153D02*
X2223045Y1925950D01*
X2219352Y1928684D02*
X2222193D01*
X2215250Y1930450D02*
X2222750D01*
X2219000Y1926700D02*
Y1934200D01*
X2223773Y1941153D02*
X2221500Y1932950D01*
X2223773Y1941153D02*
X2226045Y1932950D01*
X2222352Y1935684D02*
X2225193D01*
X1741000Y1382450D02*
X2066000D01*
X1741000Y1356450D02*
X2066000D01*
X1741000Y1330450D02*
X2066000D01*
X1741000Y1304450D02*
X2066000D01*
X1741000Y1278450D02*
X2066000D01*
X1741000Y1252450D02*
X2066000D01*
X1741000Y1226450D02*
X2066000D01*
X1741000Y1382450D02*
Y1226450D01*
X1832000Y1382450D02*
Y1226450D01*
X1871000Y1382450D02*
Y1226450D01*
X1910000Y1382450D02*
Y1226450D01*
X1968500Y1382450D02*
Y1226450D01*
X2066000Y1382450D02*
Y1226450D01*
X1779600Y1370263D02*
X1779009Y1371075D01*
X1778123Y1371481*
X1776941*
X1776055Y1371075*
X1775464Y1370263*
X1775464D02*
Y1369450D01*
X1775759Y1368638*
X1775759D02*
X1776055Y1368231D01*
X1776645Y1367825*
X1778418Y1367013*
X1778418D02*
X1779009Y1366606D01*
X1779305Y1366200*
X1779600Y1365388*
X1779600D02*
Y1364169D01*
X1779009Y1363356*
X1778123Y1362950*
X1776941*
X1776055Y1363356*
X1775464Y1364169*
X1782259Y1371481D02*
Y1362950D01*
X1789055Y1371481D02*
X1784918Y1362950D01*
Y1371481D02*
X1789055D01*
X1784918Y1362950D02*
X1789055D01*
X1791714Y1371481D02*
Y1362950D01*
Y1371481D02*
X1795555D01*
X1791714Y1367419D02*
X1794077D01*
X1791714Y1362950D02*
X1795555D01*
X1842827Y1371481D02*
X1842236Y1371075D01*
X1841645Y1370263*
X1841645D02*
X1841350Y1369450D01*
X1841055Y1368231*
Y1366200*
X1841350Y1364981*
X1841645Y1364169*
X1842236Y1363356*
X1842827Y1362950*
X1844009*
X1844600Y1363356*
X1845191Y1364169*
X1845486Y1364981*
X1845782Y1366200*
Y1368231*
X1845486Y1369450*
X1845191Y1370263*
X1845191D02*
X1844600Y1371075D01*
X1844009Y1371481*
X1842827*
X1843714Y1364575D02*
X1845486Y1362137D01*
X1850509Y1371481D02*
Y1362950D01*
X1848441Y1371481D02*
X1852577D01*
X1855236D02*
X1857600Y1367419D01*
Y1362950*
X1859964Y1371481D02*
X1857600Y1367419D01*
X1884191Y1370263D02*
X1883600Y1371075D01*
X1882714Y1371481*
X1881532*
X1880645Y1371075*
X1880055Y1370263*
X1880055D02*
Y1369450D01*
X1880350Y1368638*
X1880350D02*
X1880645Y1368231D01*
X1881236Y1367825*
X1883009Y1367013*
X1883009D02*
X1883600Y1366606D01*
X1883895Y1366200*
X1884191Y1365388*
X1884191D02*
Y1364169D01*
X1883600Y1363356*
X1882714Y1362950*
X1881532*
X1880645Y1363356*
X1880055Y1364169*
X1886850Y1371481D02*
X1889214Y1367419D01*
Y1362950*
X1891577Y1371481D02*
X1889214Y1367419D01*
X1894236Y1371481D02*
Y1362950D01*
Y1371481D02*
X1896600Y1362950D01*
X1898964Y1371481D02*
X1896600Y1362950D01*
X1898964Y1371481D02*
Y1362950D01*
X1922600Y1371481D02*
Y1362950D01*
Y1371481D02*
X1925259D01*
X1926145Y1371075*
X1926441Y1370669*
X1926736Y1369856*
Y1368638*
X1926736D02*
X1926441Y1367825D01*
X1926145Y1367419*
X1925259Y1367013*
X1925259D02*
X1922600D01*
X1929395Y1371481D02*
Y1362950D01*
X1932941*
X1937964Y1371481D02*
X1935600Y1362950D01*
X1937964Y1371481D02*
X1940327Y1362950D01*
X1936486Y1365794D02*
X1939441D01*
X1945055Y1371481D02*
Y1362950D01*
X1942986Y1371481D02*
X1947123D01*
X1949782D02*
Y1362950D01*
Y1371481D02*
X1953623D01*
X1949782Y1367419D02*
X1952145D01*
X1949782Y1362950D02*
X1953623D01*
X1956282Y1371481D02*
Y1362950D01*
Y1371481D02*
X1958350D01*
X1959236Y1371075*
X1959827Y1370263*
X1959827D02*
X1960123Y1369450D01*
X1960418Y1368231*
Y1366200*
X1960123Y1364981*
X1959827Y1364169*
X1959236Y1363356*
X1958350Y1362950*
X1956282*
X2009464Y1371481D02*
Y1362950D01*
X2007395Y1371481D02*
X2011532D01*
X2015964D02*
X2015373Y1371075D01*
X2014782Y1370263*
X2014782D02*
X2014486Y1369450D01*
X2014191Y1368231*
Y1366200*
X2014486Y1364981*
X2014782Y1364169*
X2015373Y1363356*
X2015964Y1362950*
X2017145*
X2017736Y1363356*
X2018327Y1364169*
X2018623Y1364981*
X2018918Y1366200*
Y1368231*
X2018623Y1369450*
X2018327Y1370263*
X2018327D02*
X2017736Y1371075D01*
X2017145Y1371481*
X2015964*
X2021577D02*
Y1362950D01*
X2025123*
X1747500Y1343856D02*
X1748091Y1344263D01*
X1748091D02*
X1748977Y1345481D01*
Y1336950*
X1751636Y1343856D02*
X1752227Y1344263D01*
X1752227D02*
X1753114Y1345481D01*
Y1336950*
X1757250Y1345481D02*
X1756364Y1345075D01*
X1756068Y1344263*
X1756068D02*
Y1343450D01*
X1756364Y1342638*
X1756364D02*
X1756955Y1342231D01*
X1758136Y1341825*
X1759023Y1341419*
X1759614Y1340606*
X1759909Y1339794*
Y1338575*
X1759614Y1337763*
X1759614D02*
X1759318Y1337356D01*
X1758432Y1336950*
X1757250*
X1756364Y1337356*
X1756068Y1337763*
X1756068D02*
X1755773Y1338575D01*
Y1339794*
X1756068Y1340606*
X1756659Y1341419*
X1757545Y1341825*
X1758727Y1342231*
X1759318Y1342638*
X1759318D02*
X1759614Y1343450D01*
Y1344263*
X1759614D02*
X1759318Y1345075D01*
X1758432Y1345481*
X1757250*
X1845339Y1343450D02*
Y1343856D01*
X1845634Y1344669*
X1845930Y1345075*
X1846520Y1345481*
X1847702*
X1848293Y1345075*
X1848589Y1344669*
X1848884Y1343856*
Y1343044*
X1848589Y1342231*
X1847998Y1341013*
X1847998D02*
X1845043Y1336950D01*
X1849180*
X1855975Y1345481D02*
X1853020Y1336950D01*
X1851839Y1345481D02*
X1855975D01*
X1884000Y1336950D02*
X1897000Y1349950D01*
X1884000D02*
X1897000Y1336950D01*
X1922748Y1345481D02*
Y1336950D01*
Y1345481D02*
X1926884Y1336950D01*
Y1345481D02*
Y1336950D01*
X1931316Y1345481D02*
X1930725Y1345075D01*
X1930134Y1344263*
X1930134D02*
X1929839Y1343450D01*
X1929543Y1342231*
Y1340200*
X1929839Y1338981*
X1930134Y1338169*
X1930725Y1337356*
X1931316Y1336950*
X1932498*
X1933089Y1337356*
X1933680Y1338169*
X1933975Y1338981*
X1934270Y1340200*
Y1342231*
X1933975Y1343450*
X1933680Y1344263*
X1933680D02*
X1933089Y1345075D01*
X1932498Y1345481*
X1931316*
X1993066Y1344263D02*
Y1336950D01*
X1990407Y1340606D02*
X1995725D01*
X2003702Y1347106D02*
X1998384Y1334106D01*
X2006361Y1340606D02*
X2011680D01*
X2016111Y1345481D02*
X2015225Y1345075D01*
X2014634Y1343856*
X2014339Y1341825*
Y1340606*
X2014634Y1338575*
X2015225Y1337356*
X2016111Y1336950*
X2016702*
X2017589Y1337356*
X2018180Y1338575*
X2018475Y1340606*
Y1341825*
X2018180Y1343856*
X2017589Y1345075*
X2016702Y1345481*
X2016111*
X2021430Y1337763D02*
X2021134Y1337356D01*
X2021430Y1336950*
X2021725Y1337356*
X2021430Y1337763*
X2026157Y1345481D02*
X2025270Y1345075D01*
X2024680Y1343856*
X2024384Y1341825*
Y1340606*
X2024680Y1338575*
X2025270Y1337356*
X2026157Y1336950*
X2026748*
X2027634Y1337356*
X2028225Y1338575*
X2028520Y1340606*
Y1341825*
X2028225Y1343856*
X2027634Y1345075*
X2026748Y1345481*
X2026157*
X2032952D02*
X2032066Y1345075D01*
X2031475Y1343856*
X2031180Y1341825*
Y1340606*
X2031475Y1338575*
X2032066Y1337356*
X2032952Y1336950*
X2033543*
X2034430Y1337356*
X2035020Y1338575*
X2035316Y1340606*
Y1341825*
X2035020Y1343856*
X2034430Y1345075*
X2033543Y1345481*
X2032952*
X2038566D02*
X2041816D01*
X2040043Y1342231*
X2040930*
X2041520Y1341825*
X2041816Y1341419*
X2042111Y1340200*
Y1339388*
X2042111D02*
X2041816Y1338169D01*
X2041225Y1337356*
X2040339Y1336950*
X2039452*
X2038566Y1337356*
X2038270Y1337763*
X2038270D02*
X2037975Y1338575D01*
X1750455Y1319481D02*
X1747500Y1313794D01*
X1751932*
X1750455Y1319481D02*
Y1310950D01*
X1756364Y1319481D02*
X1755477Y1319075D01*
X1754886Y1317856*
X1754591Y1315825*
Y1314606*
X1754886Y1312575*
X1755477Y1311356*
X1756364Y1310950*
X1756955*
X1757841Y1311356*
X1758432Y1312575*
X1758727Y1314606*
Y1315825*
X1758432Y1317856*
X1757841Y1319075*
X1756955Y1319481*
X1756364*
X1848736Y1318263D02*
X1848441Y1319075D01*
X1847555Y1319481*
X1846964*
X1846077Y1319075*
X1845486Y1317856*
X1845191Y1315825*
Y1313794*
X1845486Y1312169*
X1846077Y1311356*
X1846964Y1310950*
X1847259*
X1848145Y1311356*
X1848736Y1312169*
X1849032Y1313388*
X1849032D02*
Y1313794D01*
X1848736Y1315013*
X1848736D02*
X1848145Y1315825D01*
X1847259Y1316231*
X1846964*
X1846077Y1315825*
X1845486Y1315013*
X1845486D02*
X1845191Y1313794D01*
X1853464Y1319481D02*
X1852577Y1319075D01*
X1851986Y1317856*
X1851691Y1315825*
Y1314606*
X1851986Y1312575*
X1852577Y1311356*
X1853464Y1310950*
X1854055*
X1854941Y1311356*
X1855532Y1312575*
X1855827Y1314606*
Y1315825*
X1855532Y1317856*
X1854941Y1319075*
X1854055Y1319481*
X1853464*
X1884000Y1310950D02*
X1897000D01*
Y1323950*
X1884000*
Y1310950*
X1890500Y1317450D02*
Y1323950D01*
X1919498Y1319481D02*
X1921861Y1315419D01*
Y1310950*
X1924225Y1319481D02*
X1921861Y1315419D01*
X1926884Y1319481D02*
Y1310950D01*
Y1319481D02*
X1930725D01*
X1926884Y1315419D02*
X1929248D01*
X1926884Y1310950D02*
X1930725D01*
X1937520Y1318263D02*
X1936930Y1319075D01*
X1936043Y1319481*
X1934861*
X1933975Y1319075*
X1933384Y1318263*
X1933384D02*
Y1317450D01*
X1933680Y1316638*
X1933680D02*
X1933975Y1316231D01*
X1934566Y1315825*
X1936339Y1315013*
X1936339D02*
X1936930Y1314606D01*
X1937225Y1314200*
X1937520Y1313388*
X1937520D02*
Y1312169D01*
X1936930Y1311356*
X1936043Y1310950*
X1934861*
X1933975Y1311356*
X1933384Y1312169*
X1993066Y1318263D02*
Y1310950D01*
X1990407Y1314606D02*
X1995725D01*
X2003702Y1321106D02*
X1998384Y1308106D01*
X2006361Y1314606D02*
X2011680D01*
X2016111Y1319481D02*
X2015225Y1319075D01*
X2014634Y1317856*
X2014339Y1315825*
Y1314606*
X2014634Y1312575*
X2015225Y1311356*
X2016111Y1310950*
X2016702*
X2017589Y1311356*
X2018180Y1312575*
X2018475Y1314606*
Y1315825*
X2018180Y1317856*
X2017589Y1319075*
X2016702Y1319481*
X2016111*
X2021430Y1311763D02*
X2021134Y1311356D01*
X2021430Y1310950*
X2021725Y1311356*
X2021430Y1311763*
X2026157Y1319481D02*
X2025270Y1319075D01*
X2024680Y1317856*
X2024384Y1315825*
Y1314606*
X2024680Y1312575*
X2025270Y1311356*
X2026157Y1310950*
X2026748*
X2027634Y1311356*
X2028225Y1312575*
X2028520Y1314606*
Y1315825*
X2028225Y1317856*
X2027634Y1319075*
X2026748Y1319481*
X2026157*
X2032952D02*
X2032066Y1319075D01*
X2031475Y1317856*
X2031180Y1315825*
Y1314606*
X2031475Y1312575*
X2032066Y1311356*
X2032952Y1310950*
X2033543*
X2034430Y1311356*
X2035020Y1312575*
X2035316Y1314606*
Y1315825*
X2035020Y1317856*
X2034430Y1319075*
X2033543Y1319481*
X2032952*
X2038566D02*
X2041816D01*
X2040043Y1316231*
X2040930*
X2041520Y1315825*
X2041816Y1315419*
X2042111Y1314200*
Y1313388*
X2042111D02*
X2041816Y1312169D01*
X2041225Y1311356*
X2040339Y1310950*
X2039452*
X2038566Y1311356*
X2038270Y1311763*
X2038270D02*
X2037975Y1312575D01*
X1748091Y1293481D02*
X1751341D01*
X1749568Y1290231*
X1750455*
X1751045Y1289825*
X1751341Y1289419*
X1751636Y1288200*
Y1287388*
X1751636D02*
X1751341Y1286169D01*
X1750750Y1285356*
X1749864Y1284950*
X1748977*
X1748091Y1285356*
X1747795Y1285763*
X1747795D02*
X1747500Y1286575D01*
X1758136Y1293481D02*
X1755182D01*
X1754886Y1289825*
X1755182Y1290231*
X1756068Y1290638*
X1756068D02*
X1756955D01*
X1756955D02*
X1757841Y1290231D01*
X1758432Y1289419*
X1758727Y1288200*
X1758432Y1287388*
X1758432D02*
X1758136Y1286169D01*
X1757545Y1285356*
X1756659Y1284950*
X1755773*
X1754886Y1285356*
X1754591Y1285763*
X1754591D02*
X1754295Y1286575D01*
X1848736Y1291450D02*
Y1291856D01*
X1849032Y1292669*
X1849327Y1293075*
X1849918Y1293481*
X1851100*
X1851691Y1293075*
X1851986Y1292669*
X1852282Y1291856*
Y1291044*
X1851986Y1290231*
X1851395Y1289013*
X1851395D02*
X1848441Y1284950D01*
X1852577*
X1884000D02*
X1897000D01*
X1884000Y1297950*
X1897000*
X1884000Y1284950*
X1919498Y1293481D02*
X1921861Y1289419D01*
Y1284950*
X1924225Y1293481D02*
X1921861Y1289419D01*
X1926884Y1293481D02*
Y1284950D01*
Y1293481D02*
X1930725D01*
X1926884Y1289419D02*
X1929248D01*
X1926884Y1284950D02*
X1930725D01*
X1937520Y1292263D02*
X1936930Y1293075D01*
X1936043Y1293481*
X1934861*
X1933975Y1293075*
X1933384Y1292263*
X1933384D02*
Y1291450D01*
X1933680Y1290638*
X1933680D02*
X1933975Y1290231D01*
X1934566Y1289825*
X1936339Y1289013*
X1936339D02*
X1936930Y1288606D01*
X1937225Y1288200*
X1937520Y1287388*
X1937520D02*
Y1286169D01*
X1936930Y1285356*
X1936043Y1284950*
X1934861*
X1933975Y1285356*
X1933384Y1286169*
X1993066Y1292263D02*
Y1284950D01*
X1990407Y1288606D02*
X1995725D01*
X2003702Y1295106D02*
X1998384Y1282106D01*
X2006361Y1288606D02*
X2011680D01*
X2016111Y1293481D02*
X2015225Y1293075D01*
X2014634Y1291856*
X2014339Y1289825*
Y1288606*
X2014634Y1286575*
X2015225Y1285356*
X2016111Y1284950*
X2016702*
X2017589Y1285356*
X2018180Y1286575*
X2018475Y1288606*
Y1289825*
X2018180Y1291856*
X2017589Y1293075*
X2016702Y1293481*
X2016111*
X2021430Y1285763D02*
X2021134Y1285356D01*
X2021430Y1284950*
X2021725Y1285356*
X2021430Y1285763*
X2026157Y1293481D02*
X2025270Y1293075D01*
X2024680Y1291856*
X2024384Y1289825*
Y1288606*
X2024680Y1286575*
X2025270Y1285356*
X2026157Y1284950*
X2026748*
X2027634Y1285356*
X2028225Y1286575*
X2028520Y1288606*
Y1289825*
X2028225Y1291856*
X2027634Y1293075*
X2026748Y1293481*
X2026157*
X2032952D02*
X2032066Y1293075D01*
X2031475Y1291856*
X2031180Y1289825*
Y1288606*
X2031475Y1286575*
X2032066Y1285356*
X2032952Y1284950*
X2033543*
X2034430Y1285356*
X2035020Y1286575*
X2035316Y1288606*
Y1289825*
X2035020Y1291856*
X2034430Y1293075*
X2033543Y1293481*
X2032952*
X2038566D02*
X2041816D01*
X2040043Y1290231*
X2040930*
X2041520Y1289825*
X2041816Y1289419*
X2042111Y1288200*
Y1287388*
X2042111D02*
X2041816Y1286169D01*
X2041225Y1285356*
X2040339Y1284950*
X2039452*
X2038566Y1285356*
X2038270Y1285763*
X2038270D02*
X2037975Y1286575D01*
X1747500Y1265856D02*
X1748091Y1266263D01*
X1748091D02*
X1748977Y1267481D01*
Y1258950*
X1755477Y1267481D02*
X1752523D01*
X1752227Y1263825*
X1752523Y1264231*
X1753409Y1264638*
X1753409D02*
X1754295D01*
X1754295D02*
X1755182Y1264231D01*
X1755773Y1263419*
X1756068Y1262200*
X1755773Y1261388*
X1755773D02*
X1755477Y1260169D01*
X1754886Y1259356*
X1754000Y1258950*
X1753114*
X1752227Y1259356*
X1751932Y1259763*
X1751932D02*
X1751636Y1260575D01*
X1760500Y1267481D02*
X1759614Y1267075D01*
X1759023Y1265856*
X1758727Y1263825*
Y1262606*
X1759023Y1260575*
X1759614Y1259356*
X1760500Y1258950*
X1761091*
X1761977Y1259356*
X1762568Y1260575*
X1762864Y1262606*
Y1263825*
X1762568Y1265856*
X1761977Y1267075*
X1761091Y1267481*
X1760500*
X1851248D02*
X1848293Y1261794D01*
X1852725*
X1851248Y1267481D02*
Y1258950D01*
X1884000D02*
X1897000Y1271950D01*
Y1258950*
X1884000Y1271950*
Y1258950*
X1922748Y1267481D02*
Y1258950D01*
Y1267481D02*
X1926884Y1258950D01*
Y1267481D02*
Y1258950D01*
X1931316Y1267481D02*
X1930725Y1267075D01*
X1930134Y1266263*
X1930134D02*
X1929839Y1265450D01*
X1929543Y1264231*
Y1262200*
X1929839Y1260981*
X1930134Y1260169*
X1930725Y1259356*
X1931316Y1258950*
X1932498*
X1933089Y1259356*
X1933680Y1260169*
X1933975Y1260981*
X1934270Y1262200*
Y1264231*
X1933975Y1265450*
X1933680Y1266263*
X1933680D02*
X1933089Y1267075D01*
X1932498Y1267481*
X1931316*
X1993066Y1266263D02*
Y1258950D01*
X1990407Y1262606D02*
X1995725D01*
X2003702Y1269106D02*
X1998384Y1256106D01*
X2006361Y1262606D02*
X2011680D01*
X2016111Y1267481D02*
X2015225Y1267075D01*
X2014634Y1265856*
X2014339Y1263825*
Y1262606*
X2014634Y1260575*
X2015225Y1259356*
X2016111Y1258950*
X2016702*
X2017589Y1259356*
X2018180Y1260575*
X2018475Y1262606*
Y1263825*
X2018180Y1265856*
X2017589Y1267075*
X2016702Y1267481*
X2016111*
X2021430Y1259763D02*
X2021134Y1259356D01*
X2021430Y1258950*
X2021725Y1259356*
X2021430Y1259763*
X2026157Y1267481D02*
X2025270Y1267075D01*
X2024680Y1265856*
X2024384Y1263825*
Y1262606*
X2024680Y1260575*
X2025270Y1259356*
X2026157Y1258950*
X2026748*
X2027634Y1259356*
X2028225Y1260575*
X2028520Y1262606*
Y1263825*
X2028225Y1265856*
X2027634Y1267075*
X2026748Y1267481*
X2026157*
X2032952D02*
X2032066Y1267075D01*
X2031475Y1265856*
X2031180Y1263825*
Y1262606*
X2031475Y1260575*
X2032066Y1259356*
X2032952Y1258950*
X2033543*
X2034430Y1259356*
X2035020Y1260575*
X2035316Y1262606*
Y1263825*
X2035020Y1265856*
X2034430Y1267075*
X2033543Y1267481*
X2032952*
X2038566D02*
X2041816D01*
X2040043Y1264231*
X2040930*
X2041520Y1263825*
X2041816Y1263419*
X2042111Y1262200*
Y1261388*
X2042111D02*
X2041816Y1260169D01*
X2041225Y1259356*
X2040339Y1258950*
X2039452*
X2038566Y1259356*
X2038270Y1259763*
X2038270D02*
X2037975Y1260575D01*
X1747500Y1239856D02*
X1748091Y1240263D01*
X1748091D02*
X1748977Y1241481D01*
Y1232950*
X1755477Y1241481D02*
X1752523D01*
X1752227Y1237825*
X1752523Y1238231*
X1753409Y1238638*
X1753409D02*
X1754295D01*
X1754295D02*
X1755182Y1238231D01*
X1755773Y1237419*
X1756068Y1236200*
X1755773Y1235388*
X1755773D02*
X1755477Y1234169D01*
X1754886Y1233356*
X1754000Y1232950*
X1753114*
X1752227Y1233356*
X1751932Y1233763*
X1751932D02*
X1751636Y1234575D01*
X1843123Y1239856D02*
X1843714Y1240263D01*
X1843714D02*
X1844600Y1241481D01*
Y1232950*
X1847850Y1241481D02*
X1851100D01*
X1849327Y1238231*
X1850214*
X1850805Y1237825*
X1851100Y1237419*
X1851395Y1236200*
Y1235388*
X1851395D02*
X1851100Y1234169D01*
X1850509Y1233356*
X1849623Y1232950*
X1848736*
X1847850Y1233356*
X1847555Y1233763*
X1847555D02*
X1847259Y1234575D01*
X1857895Y1238638D02*
X1857600Y1237419D01*
X1857009Y1236606*
X1856123Y1236200*
X1855827*
X1854941Y1236606*
X1854350Y1237419*
X1854055Y1238638*
X1854055D02*
Y1239044D01*
X1854350Y1240263*
X1854350D02*
X1854941Y1241075D01*
X1855827Y1241481*
X1856123*
X1857009Y1241075*
X1857600Y1240263*
X1857600D02*
X1857895Y1238638D01*
X1857895D02*
Y1236606D01*
X1857600Y1234575*
X1857009Y1233356*
X1856123Y1232950*
X1855532*
X1854645Y1233356*
X1854350Y1234169*
X1884000Y1239450D02*
X1897000D01*
X1890500Y1232950D02*
Y1245950D01*
X1895641Y1249525D02*
X1893750Y1242700D01*
X1895641Y1249525D02*
X1897532Y1242700D01*
X1894459Y1244975D02*
X1896823D01*
X1919498Y1241481D02*
X1921861Y1237419D01*
Y1232950*
X1924225Y1241481D02*
X1921861Y1237419D01*
X1926884Y1241481D02*
Y1232950D01*
Y1241481D02*
X1930725D01*
X1926884Y1237419D02*
X1929248D01*
X1926884Y1232950D02*
X1930725D01*
X1937520Y1240263D02*
X1936930Y1241075D01*
X1936043Y1241481*
X1934861*
X1933975Y1241075*
X1933384Y1240263*
X1933384D02*
Y1239450D01*
X1933680Y1238638*
X1933680D02*
X1933975Y1238231D01*
X1934566Y1237825*
X1936339Y1237013*
X1936339D02*
X1936930Y1236606D01*
X1937225Y1236200*
X1937520Y1235388*
X1937520D02*
Y1234169D01*
X1936930Y1233356*
X1936043Y1232950*
X1934861*
X1933975Y1233356*
X1933384Y1234169*
X1993066Y1240263D02*
Y1232950D01*
X1990407Y1236606D02*
X1995725D01*
X2003702Y1243106D02*
X1998384Y1230106D01*
X2006361Y1236606D02*
X2011680D01*
X2016111Y1241481D02*
X2015225Y1241075D01*
X2014634Y1239856*
X2014339Y1237825*
Y1236606*
X2014634Y1234575*
X2015225Y1233356*
X2016111Y1232950*
X2016702*
X2017589Y1233356*
X2018180Y1234575*
X2018475Y1236606*
Y1237825*
X2018180Y1239856*
X2017589Y1241075*
X2016702Y1241481*
X2016111*
X2021430Y1233763D02*
X2021134Y1233356D01*
X2021430Y1232950*
X2021725Y1233356*
X2021430Y1233763*
X2026157Y1241481D02*
X2025270Y1241075D01*
X2024680Y1239856*
X2024384Y1237825*
Y1236606*
X2024680Y1234575*
X2025270Y1233356*
X2026157Y1232950*
X2026748*
X2027634Y1233356*
X2028225Y1234575*
X2028520Y1236606*
Y1237825*
X2028225Y1239856*
X2027634Y1241075*
X2026748Y1241481*
X2026157*
X2032952D02*
X2032066Y1241075D01*
X2031475Y1239856*
X2031180Y1237825*
Y1236606*
X2031475Y1234575*
X2032066Y1233356*
X2032952Y1232950*
X2033543*
X2034430Y1233356*
X2035020Y1234575*
X2035316Y1236606*
Y1237825*
X2035020Y1239856*
X2034430Y1241075*
X2033543Y1241481*
X2032952*
X2038566D02*
X2041816D01*
X2040043Y1238231*
X2040930*
X2041520Y1237825*
X2041816Y1237419*
X2042111Y1236200*
Y1235388*
X2042111D02*
X2041816Y1234169D01*
X2041225Y1233356*
X2040339Y1232950*
X2039452*
X2038566Y1233356*
X2038270Y1233763*
X2038270D02*
X2037975Y1234575D01*
G54D11*
X1741000Y1601450D02*
Y1973450D01*
X2259000*
Y1601450*
X1741000*
G54D90*
X0Y0D02*
M02*
