%
T1C.015F095S3
X01645Y0161
X0224Y01605
X02815Y01605
X0334Y01645
X03395Y0161
X04Y0161
X04605Y0161
X0507Y01165
X0527Y0134
X0536Y01495
X0544Y01595
X0592Y0154
X0601Y01535
X0589Y019
X0586Y01925
X0576Y01975
X05575Y01915
X05375Y01955
X0535Y0191
X05215Y02065
X05005Y02135
X04965Y01995
X0491Y0209
X04745Y02143
X0469Y01655
X04535Y01655
X04499Y02143
X04144Y02143
X0409Y01655
X03935Y0165
X03896Y02143
X03547Y02143
X03485Y01655
X033Y02143
X02964Y02144
X02905Y01655
X02755Y01655
X02715Y02143
X02385Y02143
X0233Y0166
X02175Y0166
X02135Y02143
X01805Y02143
X0174Y0166
X0159Y01655
X01555Y02143
X01165Y0168
X0116Y01945
X0116Y0221
X0116Y02475
X01575Y02365
X01655Y02435
X02155Y02365
X02235Y0243
X02735Y02365
X02805Y02435
X03315Y02365
X03435Y02435
X03975Y0236
X0406Y02435
X04575Y0226
X0462Y02375
X0465Y0244
X04965Y02195
X05845Y0217
X0591Y02965
X05715Y02695
X05615Y03135
X0558Y03005
X05295Y03195
X05265Y03085
X0514Y0306
X0508Y0326
X05045Y03305
X0488Y0335
X04855Y0293
X04775Y0328
X0427Y03355
X04165Y0328
X03855Y0317
X03635Y0335
X03525Y03285
X03Y03345
X0296Y0328
X0238Y03345
X02335Y0328
X0176Y0335
X0171Y03305
X0116Y03005
X0116Y0274
X0116Y0327
X0116Y03535
X0116Y038
X0154Y03595
X01805Y03595
X02155Y03597
X02406Y03601
X02759Y03597
X03005Y03597
X03355Y0359
X03605Y03597
X03952Y03597
X04205Y03597
X04455Y0359
X04558Y03597
X04805Y03597
X04905Y0359
X0516Y03605
X0563Y0365
X05875Y03405
X05885Y0366
X05055Y03975
X0496Y0402
X04825Y0412
X04745Y04085
X04615Y04085
X04225Y0412
X04145Y04085
X0402Y04085
X03615Y0412
X03545Y04085
X03415Y04085
X03025Y0412
X02945Y04085
X0282Y04085
X0242Y0412
X02345Y04085
X02215Y04085
X0183Y0411
X01745Y04085
X0162Y04085
X0116Y0408
X052Y04315
X0535Y0435
X05725Y0434
X0575Y0422
X0578Y0429
X0583Y04415
X0587Y04385
T2C.035F197S55
X05242Y0288
X05439Y0288
T3C.04F139S55
X015Y0138
X015Y01498
X018Y0138
X018Y01498
X021Y0138
X021Y01498
X024Y0138
X024Y01498
X027Y0138
X027Y01498
X03Y0138
X03Y01498
X033Y01498
X033Y0138
X036Y01498
X036Y0138
X039Y01498
X039Y0138
X042Y0138
X042Y01498
X045Y0138
X045Y01498
X048Y0138
X048Y01498
X0582Y0244
X0582Y02784
X05702Y0244
X05702Y02784
X05702Y02902
X05702Y03138
X05702Y0302
X05702Y03256
X0582Y0302
X0582Y02902
X0582Y03138
X0582Y03256
X0484Y0434
X0484Y04222
X0454Y0434
X0454Y04222
X0424Y0434
X0424Y04222
X0394Y0434
X0394Y04222
X0364Y0434
X0364Y04222
X0334Y04222
X0334Y0434
X0304Y0434
X0304Y04222
X0274Y0434
X0274Y04222
X0244Y0434
X0244Y04222
X0214Y0434
X0214Y04222
X0184Y0434
X0184Y04222
X0154Y0434
X0154Y04222
T4C.118F069S658
X015Y0121
X018Y0121
X021Y0121
X024Y0121
X027Y0121
X03Y0121
X033Y0121
X036Y0121
X039Y0121
X042Y0121
X045Y0121
X048Y0121
X0599Y0244
X0599Y02868
X0599Y03172
X0154Y0451
X0184Y0451
X0214Y0451
X0244Y0451
X0274Y0451
X0304Y0451
X0334Y0451
X0364Y0451
X0394Y0451
X0424Y0451
X0454Y0451
X0484Y0451
T5C.15F035S9
X0115Y0115
X0605Y0115
X0605Y0455
X0115Y0455
M30
