*
*
G04 PADS VX.1.1 Build Number: 678707 generated Gerber (RS-274-X) file*
G04 PC Version=2.1*
*
%IN "VM2000.pcb"*%
*
%MOIN*%
*
%FSLAX35Y35*%
*
*
*
*
G04 PC Standard Apertures*
*
*
G04 Thermal Relief Aperture macro.*
%AMTER*
1,1,$1,0,0*
1,0,$1-$2,0,0*
21,0,$3,$4,0,0,45*
21,0,$3,$4,0,0,135*
%
*
*
G04 Annular Aperture macro.*
%AMANN*
1,1,$1,0,0*
1,0,$2,0,0*
%
*
*
G04 Odd Aperture macro.*
%AMODD*
1,1,$1,0,0*
1,0,$1-0.005,0,0*
%
*
*
G04 PC Custom Aperture Macros*
*
*
*
*
*
*
G04 PC Aperture Table*
*
%ADD011C,0.01*%
%ADD090C,0.001*%
%ADD116R,0.05X0.06*%
%ADD117R,0.06X0.05*%
%ADD130R,0.06X0.08*%
%ADD156R,0.13X0.14*%
%ADD157R,0.08X0.06*%
%ADD158R,0.091X0.06*%
%ADD159R,0.04X0.06*%
%ADD160R,0.027X0.04*%
%ADD161O,0.024X0.074*%
%ADD162R,0.072X0.096*%
%ADD163O,0.074X0.024*%
*
*
*
*
G04 PC Circuitry*
G04 Layer Name VM2000.pcb - circuitry*
%LPD*%
*
*
G04 PC Custom Flashes*
G04 Layer Name VM2000.pcb - flashes*
%LPD*%
*
*
G04 PC Circuitry*
G04 Layer Name VM2000.pcb - circuitry*
%LPD*%
*
G54D11*
G01X100000Y100000D02*
Y472000D01*
X618000*
Y100000*
X100000*
G54D90*
G54D116*
X178000Y315500D03*
Y324500D03*
X426000Y315500D03*
Y324500D03*
X362000Y315500D03*
Y324500D03*
X304000Y315500D03*
Y324500D03*
X242000Y315500D03*
Y324500D03*
X500000Y337500D03*
Y346500D03*
X591500Y360500D03*
Y351500D03*
X318000Y230500D03*
Y221500D03*
X486000Y315500D03*
Y324500D03*
X158000Y254500D03*
Y245500D03*
X216000Y254500D03*
Y245500D03*
X396000Y254500D03*
Y245500D03*
X456000Y254500D03*
Y245500D03*
X272000Y254500D03*
Y245500D03*
X334000Y254500D03*
Y245500D03*
X440000Y337500D03*
Y346500D03*
X376000Y337500D03*
Y346500D03*
X318000Y337500D03*
Y346500D03*
X194000Y341500D03*
Y350500D03*
X256000Y339500D03*
Y348500D03*
X440000Y230500D03*
Y221500D03*
X380000Y230500D03*
Y221500D03*
X258000Y230500D03*
Y221500D03*
X202000Y230500D03*
Y221500D03*
X144000Y230500D03*
Y221500D03*
X597000Y186000D03*
Y177000D03*
G54D117*
X162500Y330000D03*
X153500D03*
X224500Y328000D03*
X215500D03*
X353500Y244000D03*
X362500D03*
X342500Y328000D03*
X333500D03*
X172500Y243000D03*
X181500D03*
X231500Y244000D03*
X240500D03*
X289500D03*
X298500D03*
X415500D03*
X424500D03*
X473500D03*
X482500D03*
X466500Y328000D03*
X457500D03*
X406500D03*
X397500D03*
X286500D03*
X277500D03*
X606500Y200000D03*
X597500D03*
G54D130*
X258000Y246400D03*
Y257600D03*
X380000Y246400D03*
Y257600D03*
X440000Y246400D03*
Y257600D03*
X500000Y321600D03*
Y310400D03*
X376000Y321600D03*
Y310400D03*
X440000Y321600D03*
Y310400D03*
X318000Y321600D03*
Y310400D03*
X194000Y323600D03*
Y312400D03*
X256000Y321600D03*
Y310400D03*
X318000Y246400D03*
Y257600D03*
X200000Y246400D03*
Y257600D03*
X142000Y246400D03*
Y257600D03*
G54D156*
X570657Y215658D03*
X549657D03*
X158500Y347000D03*
X179500D03*
X281500Y346000D03*
X302500D03*
X461500D03*
X482500D03*
X337500D03*
X358500D03*
X178500Y226000D03*
X157500D03*
X236500D03*
X215500D03*
X294500D03*
X273500D03*
X478500D03*
X457500D03*
X219500Y346000D03*
X240500D03*
X418500Y226000D03*
X397500D03*
X358500D03*
X337500D03*
X401500Y346000D03*
X422500D03*
G54D157*
X596400Y212000D03*
X607600D03*
G54D158*
X598600Y224000D03*
G54D159*
X608700D03*
G54D160*
X523750Y333100D03*
X520000D03*
X516250D03*
Y322900D03*
X523750D03*
G54D161*
X319500Y171200D03*
X324500D03*
X329500D03*
X334500D03*
X339500D03*
X344500D03*
X349500D03*
X354500D03*
X359500D03*
X364500D03*
Y208800D03*
X359500D03*
X354500D03*
X349500D03*
X344500D03*
X339500D03*
X334500D03*
X329500D03*
X324500D03*
X319500D03*
X370500Y402800D03*
X365500D03*
X360500D03*
X355500D03*
X350500D03*
X345500D03*
X340500D03*
X335500D03*
X330500D03*
X325500D03*
Y365200D03*
X330500D03*
X335500D03*
X340500D03*
X345500D03*
X350500D03*
X355500D03*
X360500D03*
X365500D03*
X370500D03*
X490500Y402800D03*
X485500D03*
X480500D03*
X475500D03*
X470500D03*
X465500D03*
X460500D03*
X455500D03*
X450500D03*
X445500D03*
Y365200D03*
X450500D03*
X455500D03*
X460500D03*
X465500D03*
X470500D03*
X475500D03*
X480500D03*
X485500D03*
X490500D03*
X430500Y402800D03*
X425500D03*
X420500D03*
X415500D03*
X410500D03*
X405500D03*
X400500D03*
X395500D03*
X390500D03*
X385500D03*
Y365200D03*
X390500D03*
X395500D03*
X400500D03*
X405500D03*
X410500D03*
X415500D03*
X420500D03*
X425500D03*
X430500D03*
X261500Y171200D03*
X266500D03*
X271500D03*
X276500D03*
X281500D03*
X286500D03*
X291500D03*
X296500D03*
X301500D03*
X306500D03*
Y208800D03*
X301500D03*
X296500D03*
X291500D03*
X286500D03*
X281500D03*
X276500D03*
X271500D03*
X266500D03*
X261500D03*
X439500Y171200D03*
X444500D03*
X449500D03*
X454500D03*
X459500D03*
X464500D03*
X469500D03*
X474500D03*
X479500D03*
X484500D03*
Y208800D03*
X479500D03*
X474500D03*
X469500D03*
X464500D03*
X459500D03*
X454500D03*
X449500D03*
X444500D03*
X439500D03*
X145500Y171200D03*
X150500D03*
X155500D03*
X160500D03*
X165500D03*
X170500D03*
X175500D03*
X180500D03*
X185500D03*
X190500D03*
Y208800D03*
X185500D03*
X180500D03*
X175500D03*
X170500D03*
X165500D03*
X160500D03*
X155500D03*
X150500D03*
X145500D03*
X203500Y171200D03*
X208500D03*
X213500D03*
X218500D03*
X223500D03*
X228500D03*
X233500D03*
X238500D03*
X243500D03*
X248500D03*
Y208800D03*
X243500D03*
X238500D03*
X233500D03*
X228500D03*
X223500D03*
X218500D03*
X213500D03*
X208500D03*
X203500D03*
X379500Y171200D03*
X384500D03*
X389500D03*
X394500D03*
X399500D03*
X404500D03*
X409500D03*
X414500D03*
X419500D03*
X424500D03*
Y208800D03*
X419500D03*
X414500D03*
X409500D03*
X404500D03*
X399500D03*
X394500D03*
X389500D03*
X384500D03*
X379500D03*
X310500Y402800D03*
X305500D03*
X300500D03*
X295500D03*
X290500D03*
X285500D03*
X280500D03*
X275500D03*
X270500D03*
X265500D03*
Y365200D03*
X270500D03*
X275500D03*
X280500D03*
X285500D03*
X290500D03*
X295500D03*
X300500D03*
X305500D03*
X310500D03*
X250500Y402800D03*
X245500D03*
X240500D03*
X235500D03*
X230500D03*
X225500D03*
X220500D03*
X215500D03*
X210500D03*
X205500D03*
Y365200D03*
X210500D03*
X215500D03*
X220500D03*
X225500D03*
X230500D03*
X235500D03*
X240500D03*
X245500D03*
X250500D03*
X190500Y402800D03*
X185500D03*
X180500D03*
X175500D03*
X170500D03*
X165500D03*
X160500D03*
X155500D03*
X150500D03*
X145500D03*
Y365200D03*
X150500D03*
X155500D03*
X160500D03*
X165500D03*
X170500D03*
X175500D03*
X180500D03*
X185500D03*
X190500D03*
G54D162*
X470000Y316000D03*
Y300000D03*
X410000Y316000D03*
Y300000D03*
X226000Y316000D03*
Y300000D03*
X346000Y316000D03*
Y300000D03*
X288000Y316000D03*
Y300000D03*
X274000D03*
Y316000D03*
X166000D03*
Y300000D03*
X152000D03*
Y316000D03*
X300000Y272000D03*
Y256000D03*
X244000Y272000D03*
Y256000D03*
X364000Y272000D03*
Y256000D03*
X230000D03*
Y272000D03*
X286000Y256000D03*
Y272000D03*
X470000Y256000D03*
Y272000D03*
X412000Y256000D03*
Y272000D03*
X350000Y256000D03*
Y272000D03*
X172000Y255000D03*
Y271000D03*
X484000Y272000D03*
Y256000D03*
X332000Y300000D03*
Y316000D03*
X458000Y300000D03*
Y316000D03*
X396000Y300000D03*
Y316000D03*
X212000Y300000D03*
Y316000D03*
X426000Y272000D03*
Y256000D03*
X186000Y271000D03*
Y255000D03*
G54D163*
X527200Y441000D03*
Y436000D03*
Y431000D03*
Y426000D03*
Y421000D03*
Y416000D03*
Y411000D03*
Y406000D03*
Y401000D03*
Y396000D03*
Y391000D03*
Y386000D03*
X564800D03*
Y391000D03*
Y396000D03*
Y401000D03*
Y406000D03*
Y411000D03*
Y416000D03*
Y421000D03*
Y426000D03*
Y431000D03*
Y436000D03*
Y441000D03*
X528700Y199500D03*
Y194500D03*
Y189500D03*
Y184500D03*
Y179500D03*
Y174500D03*
Y169500D03*
Y164500D03*
Y159500D03*
Y154500D03*
Y149500D03*
Y144500D03*
X566300D03*
Y149500D03*
Y154500D03*
Y159500D03*
Y164500D03*
Y169500D03*
Y174500D03*
Y179500D03*
Y184500D03*
Y189500D03*
Y194500D03*
Y199500D03*
X0Y0D02*
M02*
